<svg width="92" height="109" viewBox="0 0 92 109" fill="none" xmlns="http://www.w3.org/2000/svg">
<g id="Group 19">
<path id="Vector (Stroke)" fill-rule="evenodd" clip-rule="evenodd" d="M33.404 0.569742C35.3433 0.536018 36.9434 2.11637 36.9779 4.09955L37.1028 11.2813C37.1373 13.2645 35.5931 14.8995 33.6537 14.9332C31.7144 14.9669 30.1143 13.3866 30.0798 11.4034L29.9549 4.22167C29.9204 2.23849 31.4646 0.603465 33.404 0.569742ZM10.3999 10.789C11.7468 9.36281 13.9702 9.32414 15.3659 10.7026L20.4202 15.6945C21.8159 17.073 21.8555 19.3466 20.5085 20.7728C19.1616 22.1989 16.9382 22.2376 15.5425 20.8591L10.4882 15.8672C9.09247 14.4888 9.05293 12.2151 10.3999 10.789ZM56.7494 9.983C58.1451 11.3615 58.1847 13.6351 56.8377 15.0613L51.96 20.2259C50.6131 21.652 48.3897 21.6907 46.994 20.3122C45.5983 18.9337 45.5587 16.6601 46.9057 15.234L51.7834 10.0694C53.1303 8.64319 55.3537 8.60453 56.7494 9.983ZM1.21267 34.6544C1.17818 32.6712 2.72238 31.0362 4.66174 31.0025L11.6848 30.8804C13.6241 30.8466 15.2242 32.427 15.2587 34.4102C15.2932 36.3933 13.749 38.0284 11.8096 38.0621L4.78662 38.1842C2.84727 38.2179 1.24715 36.6376 1.21267 34.6544ZM52.7148 33.7588C52.6803 31.7757 54.2245 30.1406 56.1638 30.1069L63.1869 29.9848C65.1262 29.9511 66.7263 31.5314 66.7608 33.5146C66.7953 35.4978 65.2511 37.1328 63.3117 37.1665L56.2887 37.2887C54.3494 37.3224 52.7493 35.742 52.7148 33.7588ZM20.9795 47.8568C22.3752 49.2353 22.4147 51.5089 21.0678 52.935L16.1901 58.0996C14.8431 59.5258 12.6198 59.5645 11.2241 58.186C9.82835 56.8075 9.78881 54.5339 11.1358 53.1078L16.0135 47.9431C17.3604 46.517 19.5838 46.4783 20.9795 47.8568Z" fill="#FE9926"/>
<g id="Vector">
<path d="M44.3353 16.4922C29.3064 16.4922 17.123 28.6755 17.123 43.7045C17.123 53.7673 22.5863 62.5512 30.6967 67.2569C32.9577 68.5688 34.3735 70.5817 34.4376 72.6074C34.4729 73.7247 35.2532 74.6796 36.3412 74.9367C37.5002 75.2106 38.6813 75.4262 39.881 75.5804C40.9484 75.7175 41.8621 74.8625 41.8621 73.7863V58.4121C40.8089 58.2956 39.7769 58.1055 38.7716 57.8467C37.4485 57.5062 36.6519 56.1575 36.9925 54.8344C37.333 53.5112 38.6817 52.7147 40.0049 53.0552C41.3863 53.4108 42.837 53.6004 44.3359 53.6004C45.8348 53.6004 47.2855 53.4108 48.667 53.0552C49.9901 52.7147 51.3388 53.5112 51.6794 54.8344C52.0199 56.1575 51.2234 57.5062 49.9002 57.8467C48.8949 58.1055 47.8629 58.2956 46.8098 58.4121V73.7862C46.8098 74.8624 47.7234 75.7174 48.7909 75.5802C49.9902 75.4261 51.1708 75.2105 52.3295 74.9367C53.4174 74.6796 54.1977 73.7247 54.2331 72.6074C54.2972 70.5816 55.713 68.5688 57.9739 67.2569C66.0843 62.5512 71.5476 53.7673 71.5476 43.7045C71.5476 28.6755 59.3642 16.4922 44.3353 16.4922Z" fill="#FE31C1"/>
<path fill-rule="evenodd" clip-rule="evenodd" d="M34.4833 79.6565C34.7379 78.3142 36.0325 77.4324 37.3748 77.6871C39.6276 78.1144 41.9542 78.3383 44.3353 78.3383C46.7165 78.3383 49.0431 78.1144 51.2958 77.6871C52.6381 77.4324 53.9327 78.3142 54.1874 79.6565C54.442 80.9988 53.5602 82.2934 52.2179 82.5481C49.6627 83.0328 47.0275 83.286 44.3353 83.286C41.6432 83.286 39.0079 83.0328 36.4527 82.5481C35.1104 82.2934 34.2287 80.9988 34.4833 79.6565Z" fill="#FE31C1"/>
<path fill-rule="evenodd" clip-rule="evenodd" d="M36.9272 87.719C37.0694 86.3601 38.2862 85.3738 39.645 85.5159C41.1857 85.6771 42.7504 85.7598 44.3353 85.7598C45.9202 85.7598 47.485 85.6771 49.0256 85.5159C50.3845 85.3738 51.6013 86.3601 51.7434 87.719C51.8856 89.0778 50.8992 90.2946 49.5404 90.4368C47.829 90.6158 46.0925 90.7075 44.3353 90.7075C42.5782 90.7075 40.8416 90.6158 39.1302 90.4368C37.7714 90.2946 36.7851 89.0778 36.9272 87.719Z" fill="#FE31C1"/>
</g>
<g id="Group 18">
<path id="Rectangle 4920" d="M54.7866 70.4138L75.6929 79.7859L68.2165 82.958L65.3889 90.4723L54.7866 70.4138Z" fill="#FE9926"/>
<path id="Rectangle 4920 (Stroke)" fill-rule="evenodd" clip-rule="evenodd" d="M52.9821 68.7249C53.7041 67.9545 54.8356 67.7273 55.7991 68.1592L76.7054 77.5313C77.6031 77.9337 78.177 78.8299 78.1671 79.8136C78.1572 80.7974 77.5653 81.6818 76.6596 82.066L72.6875 83.7513L81.7859 92.2497C82.7844 93.1823 82.8377 94.7477 81.9051 95.7462C80.9725 96.7447 79.4071 96.798 78.4086 95.8654L69.2302 87.2923L67.7047 91.3463C67.3619 92.2573 66.5169 92.8826 65.5455 92.944C64.5742 93.0054 63.6571 92.4916 63.2023 91.6311L52.6 71.5726C52.1066 70.6391 52.26 69.4953 52.9821 68.7249ZM65.009 84.4616L65.9016 82.0895C66.14 81.456 66.6276 80.9478 67.2508 80.6834L69.5067 79.7263L60.3321 75.6134L65.009 84.4616Z" fill="#FE9926"/>
</g>
</g>
</svg>
